# xmcd CD Database Entry
#
# Track frame offsets:
# 150
# 29805
# 43098
# 53563
# 74603
# 101908
# 118723
# 141753
# 170558
# 180568
# 191800
# 215323
# 233245
# 258225
# 280483
# 291958
#
# Disc length: 4049 seconds
#
# Revision: 2
# Processed by: cddbd v1.4b41PL1 Copyright (c) Steve Scherf et al.
# Submitted via: tcd 2.0b
#
DISCID=020fcf10
DTITLE=Arild Andersen - Sagn
DYEAR=1900
DGENRE=
TTITLE0=Sagn
TTITLE1=Gardsjenta
TTITLE2=Eisemo
TTITLE3=Toll
TTITLE4=Draum
TTITLE5=Laurdagskveld
TTITLE6=Tjovane
TTITLE7=Sorgmild
TTITLE8=Svarm
TTITLE9=Gamlestev
TTITLE10=Reven
TTITLE11=Nystev
TTITLE12=Lussi
TTITLE13=Rysen
TTITLE14=Belare
TTITLE15=Sagn
EXTD=
EXTT0=
EXTT1=
EXTT2=
EXTT3=
EXTT4=
EXTT5=
EXTT6=
EXTT7=
EXTT8=
EXTT9=
EXTT10=
EXTT11=
EXTT12=
EXTT13=
EXTT14=
EXTT15=
PLAYORDER=
